<?xml version="1.0" encoding="utf-8"?>
<?xml-stylesheet type="text/xsl" href="rss1.xsl"?>
<rss version="2.0" xmlns:atom="http://www.w3.org/2005/Atom" xmlns:content="http://purl.org/rss/1.0/modules/content/" xmlns:dc="http://purl.org/dc/elements/1.1/" xmlns:media="http://search.yahoo.com/mrss/">
<channel>
 <title>Getty</title>
 <link>http://www.gettyimg.com/</link>
 <atom:link href="http://www.gettyimg.com/" rel="self" type="application/rss+xml" />

 
                <item>
                <title><![CDATA[【Documentaries】WEB-DL - Pablo Alborán Mi música, Mi Tierra Disney+.WEB-DL.720p-Tknobi]]></title>
                <link><![CDATA[https://sharemania.us/threads/pablo-albor%C3%A1n-mi-m%C3%BAsica-mi-tierra-disney-web-dl-720p-tknobi.228943/]]></link>
                <description><![CDATA[<article>
<blockquote class="messageText SelectQuoteContainer ugc baseHtml">
<div style="text-align: center"><img src="https://i.postimg.cc/SNmb5F3T/Mi-m-sica-mi-tierra-Pablo-Albor-n-mp4.jpg" class="bbCodeImage LbImage" alt="[​IMG]" data-url="https://i.postimg.cc/SNmb5F3T/Mi-m-sica-mi-tierra-Pablo-Albor-n-mp4.jpg" style=""> ​</div>
<div class="ToggleTriggerAnchor bbCodeSpoilerContainer">
<button type="button" class="button bbCodeSpoilerButton ToggleTrigger Tooltip JsOnly" data-target="> .SpoilerTarget"><span>Spoiler: <span class="SpoilerTitle">MediaInfo</span></span></button>
<div class="SpoilerTarget bbCodeSpoilerText">Format : MPEG-4<br>
Format profile : Base Media<br>
Codec ID : isom (isom/dby1/iso2/avc1/mp41)<br>
File size : 904 MiB<br>
Duration : 30 min 5 s<br>
Overall bit rate mode : Variable<br>
Overall bit rate : 4 200 kb/s<br>
Movie name : Mi música, mi tierra: Pablo Alborán<br>
Performer : Pablo Alborán<br>
Description : Pablo Alborán viaja a Málaga, la ciudad en la que nació y una de las más felices del mundo. Málaga está presente tanto en su espíritu como en sus canciones, porque fue allí donde aprendió a tocar la guitarra y el piano. Fue donde escuchó los discos que lo formaron, y de ella recuerda el olor del verano y la famosa “La Vie en Rose” que escuchaba cantar a su abuelo mientras picaba el hielo de la heladera. Descubriremos a un Pablo íntimo, contando sus primeros vínculos con la música, cuando todo parecía ser solamente un sueño.<br>
Recorded date : 2023<br>
Writing application : Lavf60.3.100<br>
Cover : Yes<br>
<br>
Video<br>
ID : 1<br>
Format : AVC<br>
Format/Info : Advanced Video Codec<br>
Format profile : High@L3.1<br>
Format settings : CABAC / 4 Ref Frames<br>
Format settings, CABAC : Yes<br>
Format settings, Reference frames : 4 frames<br>
Codec ID : avc1<br>
Codec ID/Info : Advanced Video Coding<br>
Duration : 30 min 5 s<br>
Bit rate mode : Variable<br>
Bit rate : 3 703 kb/s<br>
Maximum bit rate : 6 375 kb/s<br>
Width : 1 280 pixels<br>
Height : 720 pixels<br>
Display aspect ratio : 16:9<br>
Frame rate mode : Constant<br>
Frame rate : 23.976 (24000/1001) FPS<br>
Color space : YUV<br>
Chroma subsampling : 4:2:0<br>
Bit depth : 8 bits<br>
Scan type : Progressive<br>
Bits/(Pixel*Frame) : 0.168<br>
Stream size : 797 MiB (88%)<br>
Title : BAMTech video<br>
Color range : Limited<br>
Color primaries : BT.709<br>
Transfer characteristics : BT.709<br>
Matrix coefficients : BT.709<br>
Codec configuration box : avcC<br>
<br>
Audio #1<br>
ID : 3<br>
Format : E-AC-3<br>
Format/Info : Enhanced AC-3<br>
Commercial name : Dolby Digital Plus<br>
Codec ID : ec-3<br>
Duration : 30 min 5 s<br>
Bit rate mode : Constant<br>
Bit rate : 256 kb/s<br>
Channel(s) : 6 channels<br>
Channel layout : L R C LFE Ls Rs<br>
Sampling rate : 48.0 kHz<br>
Frame rate : 31.250 FPS (1536 SPF)<br>
Compression mode : Lossy<br>
Stream size : 55.1 MiB (6%)<br>
Title : BAMTech audio / Español (Latinoamericano)<br>
Language : Spanish<br>
Service kind : Complete Main<br>
Default : Yes<br>
Alternate group : 1<br>
<br>
Audio #2<br>
ID : 4<br>
Format : AAC LC<br>
Format/Info : Advanced Audio Codec Low Complexity<br>
Codec ID : mp4a-40-2<br>
Duration : 30 min 5 s<br>
Bit rate mode : Constant<br>
Bit rate : 125 kb/s<br>
Channel(s) : 2 channels<br>
Channel layout : L R<br>
Sampling rate : 48.0 kHz<br>
Frame rate : 46.875 FPS (1024 SPF)<br>
Compression mode : Lossy<br>
Stream size : 27.0 MiB (3%)<br>
Title : BAMTech audio / Español (Latinoamericano) [Audio descriptivo]<br>
Language : Spanish<br>
Default : No<br>
Alternate group : 1<br>
<br>
Text<br>
ID : 5<br>
Format : Timed Text<br>
Muxing mode : sbtl<br>
Codec ID : tx3g<br>
Duration : 29 min 24 s<br>
Bit rate mode : Variable<br>
Bit rate : 114 b/s<br>
Stream size : 24.5 KiB (0%)<br>
Title : Español (Latinoamericano) [CC]<br>
Language : Spanish<br>
Default : Yes<br>
Forced : No<br>
Alternate group : 3</div>
</div><br>
<div style="text-align: center">
<div class="bbCodeBlock bbCodeVfcHH HiddenContent">
<div class="attribution type">Hidden Content:</div>
<blockquote>You must either reply or click 'Like' to see the hidden information contained here.</blockquote>
</div></div>
<div class="messageTextEndMarker">&nbsp;</div>
</blockquote>
</article>]]></description>
                <author><![CDATA[tknobi]]></author>
                </item>

                </channel></rss>